<?xml version="1.0" encoding="UTF-8" standalone="no"?>
<!-- Created with Inkscape (http://www.inkscape.org/) -->

<svg
   width="184.44449mm"
   height="23.81122mm"
   viewBox="0 0 184.44449 23.81122"
   version="1.1"
   id="svg1"
   inkscape:version="1.4.4 (dcaf3e7, 2026-05-05)"
   sodipodi:docname="title.svg"
   xmlns:inkscape="http://www.inkscape.org/namespaces/inkscape"
   xmlns:sodipodi="http://sodipodi.sourceforge.net/DTD/sodipodi-0.dtd"
   xmlns:xlink="http://www.w3.org/1999/xlink"
   xmlns="http://www.w3.org/2000/svg"
   xmlns:svg="http://www.w3.org/2000/svg">
  <sodipodi:namedview
     id="namedview1"
     pagecolor="#ffffff"
     bordercolor="#000000"
     borderopacity="0.25"
     inkscape:showpageshadow="2"
     inkscape:pageopacity="0.0"
     inkscape:pagecheckerboard="0"
     inkscape:deskcolor="#d1d1d1"
     inkscape:document-units="mm"
     inkscape:zoom="0.53655828"
     inkscape:cx="179.84999"
     inkscape:cy="99.709578"
     inkscape:window-width="1728"
     inkscape:window-height="1056"
     inkscape:window-x="0"
     inkscape:window-y="33"
     inkscape:window-maximized="1"
     inkscape:current-layer="layer1" />
  <defs
     id="defs1">
    <linearGradient
       id="linearGradient1"
       inkscape:collect="always">
      <stop
         style="stop-color:#daf8fe;stop-opacity:1;"
         offset="0.29637527"
         id="stop1" />
      <stop
         style="stop-color:#93e4fc;stop-opacity:1;"
         offset="1"
         id="stop2" />
    </linearGradient>
    <radialGradient
       inkscape:collect="always"
       xlink:href="#linearGradient1"
       id="radialGradient2"
       cx="102.79529"
       cy="154.26202"
       fx="102.79529"
       fy="154.26202"
       r="92.222242"
       gradientTransform="matrix(1,0,0,0.12909695,0,134.34726)"
       gradientUnits="userSpaceOnUse" />
  </defs>
  <g
     inkscape:label="Layer 1"
     inkscape:groupmode="layer"
     id="layer1"
     transform="translate(-10.573053,-142.35641)">
    <path
       style="font-weight:900;font-size:30.8545px;font-family:Nunito;-inkscape-font-specification:'Nunito Heavy';display:inline;fill:url(#radialGradient2);stroke:#006baf;stroke-width:0.729;stroke-linecap:round;stroke-miterlimit:3.5;stroke-dasharray:none;stroke-opacity:1;fill-opacity:1"
       d="m 13.816045,165.45388 c -0.939509,0 -1.659132,-0.254 -2.158869,-0.762 -0.479749,-0.52916 -0.719623,-1.28058 -0.719623,-2.25425 v -16.35122 c 0,-0.97367 0.239874,-1.71451 0.719623,-2.2225 0.499737,-0.52917 1.21936,-0.79375 2.158869,-0.79375 h 7.316167 c 1.519205,0 2.808529,0.24341 3.867973,0.73025 1.079435,0.46566 1.899005,1.13241 2.458712,2.00025 0.559708,0.86783 0.839561,1.88383 0.839561,3.04799 0,1.31234 -0.359812,2.43417 -1.079435,3.3655 -0.530491,0.70617 -1.210387,1.24198 -2.039686,1.60742 -0.264414,0.1165 1.709859,0.67858 2.489451,1.63107 0.799581,0.9525 1.199372,2.16959 1.199372,3.65125 0,1.9685 -0.66965,3.52424 -2.008948,4.66724 -1.319309,1.12183 -3.128362,1.68275 -5.427157,1.68275 z m 2.398743,-4.28625 h 4.467659 c 1.019466,0 1.759079,-0.20108 2.218838,-0.60324 0.479749,-0.42333 0.719623,-1.04775 0.719623,-1.87325 0,-0.82549 -0.239874,-1.43933 -0.719623,-1.8415 -0.459759,-0.40216 -1.199372,-0.60324 -2.218838,-0.60324 h -4.467659 z m 0,-9.20748 h 3.927942 c 0.999476,0 1.729094,-0.1905 2.188854,-0.5715 0.479749,-0.38099 0.719623,-0.96308 0.719623,-1.74625 0,-0.78317 -0.239874,-1.35467 -0.719623,-1.71449 -0.45976,-0.381 -1.189378,-0.5715 -2.188854,-0.5715 h -3.927942 z m 18.530283,13.77948 c -0.879539,0 -1.559183,-0.254 -2.038932,-0.762 -0.479748,-0.52917 -0.719623,-1.25941 -0.719623,-2.19075 v -16.76397 c 0,-0.9525 0.239875,-1.68275 0.719623,-2.19075 0.499738,-0.508 1.189377,-0.762 2.068916,-0.762 h 7.376136 c 2.398744,0 4.247775,0.62441 5.547095,1.87324 1.319309,1.22768 1.978963,2.94217 1.978963,5.1435 0,1.41816 -0.299843,2.65642 -0.899529,3.71475 -0.579697,1.03716 -1.429252,1.84149 -2.548665,2.41299 -1.099423,0.55033 -2.010207,0.19429 -1.121442,0.43968 0.356128,0.11079 0.689963,0.27114 1.001505,0.48107 0.659654,0.42333 1.209366,1.0795 1.649136,1.9685 l 1.499215,2.8575 c 0.319833,0.61383 0.469754,1.21708 0.449764,1.80974 -0.01999,0.5715 -0.239872,1.04775 -0.659655,1.42876 -0.39979,0.35983 -0.989481,0.53974 -1.769072,0.53974 -0.779592,0 -1.419257,-0.16934 -1.918995,-0.508 -0.479749,-0.33866 -0.909524,-0.86782 -1.289325,-1.58749 l -2.72857,-5.30225 c -0.239875,-0.46567 -0.549712,-0.78317 -0.929514,-0.9525 -0.359811,-0.1905 -0.779591,-0.28575 -1.25934,-0.28575 h -1.649136 v 5.68324 c 0,0.93134 -0.229879,1.66158 -0.689639,2.19075 -0.459759,0.508 -1.149397,0.762 -2.068916,0.762 z m 2.758555,-12.76349 h 3.658084 c 1.059445,0 1.86902,-0.22224 2.428727,-0.66674 0.559707,-0.44451 0.83956,-1.13242 0.83956,-2.06375 0,-0.889 -0.279853,-1.55574 -0.83956,-2.00025 -0.559707,-0.46566 -1.369282,-0.6985 -2.428727,-0.6985 h -3.658084 z m 18.410337,12.76349 c -0.879538,0 -1.559183,-0.254 -2.038931,-0.762 -0.479749,-0.52917 -0.719623,-1.27 -0.719623,-2.22249 V 145.7689 c 0,-0.97367 0.239874,-1.71449 0.719623,-2.22249 0.479748,-0.508 1.159393,-0.762 2.038931,-0.762 0.899529,0 1.579174,0.254 2.038932,0.762 0.479749,0.508 0.719623,1.24882 0.719623,2.22249 v 16.98624 c 0,0.95249 -0.229879,1.69332 -0.689638,2.22249 -0.45976,0.508 -1.149398,0.762 -2.068917,0.762 z m 17.270963,0.0635 c -2.338775,0 -4.347723,-0.47625 -6.026844,-1.42875 -1.67912,-0.95249 -2.968444,-2.29658 -3.867973,-4.03224 -0.879539,-1.73566 -1.319309,-3.76766 -1.319309,-6.096 0,-1.73566 0.24987,-3.31257 0.749607,-4.73074 0.519728,-1.41817 1.25934,-2.63525 2.218838,-3.65124 0.979487,-1.016 2.158869,-1.78858 3.538146,-2.31775 1.399268,-0.55033 2.968446,-0.8255 4.707535,-0.8255 0.919518,0 1.869021,0.11641 2.848507,0.34925 0.999476,0.21166 1.879016,0.53974 2.638618,0.98425 0.559707,0.3175 0.949502,0.71967 1.169388,1.2065 0.219884,0.48683 0.289848,0.98425 0.209889,1.49224 -0.05997,0.508 -0.229877,0.96309 -0.509732,1.36525 -0.279853,0.40217 -0.639665,0.67733 -1.079435,0.8255 -0.43977,0.127 -0.919518,0.0529 -1.439246,-0.22225 -0.599686,-0.29633 -1.199371,-0.51857 -1.799057,-0.66674 -0.579697,-0.16934 -1.189378,-0.25401 -1.829043,-0.25401 -1.23935,0 -2.278806,0.25401 -3.118366,0.762 -0.81957,0.48683 -1.439246,1.2065 -1.859026,2.159 -0.41978,0.9525 -0.62967,2.12725 -0.62967,3.52424 0,1.397 0.20989,2.58233 0.62967,3.556 0.41978,0.9525 1.039456,1.68275 1.859026,2.19075 0.83956,0.48683 1.879016,0.73025 3.118366,0.73025 0.519728,0 1.079435,-0.0635 1.679121,-0.19051 0.599686,-0.14817 1.189376,-0.37041 1.769073,-0.66674 0.599686,-0.27517 1.129409,-0.34925 1.589167,-0.22225 0.479749,0.127 0.859551,0.38101 1.139404,0.762 0.299843,0.381 0.489743,0.8255 0.569702,1.3335 0.07996,0.48683 0.01,0.97366 -0.209891,1.46049 -0.199895,0.48684 -0.559707,0.87843 -1.079434,1.17475 -0.699634,0.4445 -1.569178,0.79375 -2.608633,1.04776 -1.019466,0.25399 -2.038932,0.38099 -3.058398,0.38099 z m 12.71333,-0.0635 c -0.879539,0 -1.559183,-0.254 -2.038932,-0.762 -0.479748,-0.52917 -0.719623,-1.25941 -0.719623,-2.19075 v -17.04972 c 0,-0.97367 0.239875,-1.70392 0.719623,-2.19075 0.479749,-0.508 1.159393,-0.762 2.038932,-0.762 0.899529,0 1.579173,0.254 2.038932,0.762 0.479749,0.48683 0.719623,1.21708 0.719623,2.19075 v 6.92149 h 0.05997 l 7.286177,-8.50899 c 0.379808,-0.42333 0.779595,-0.75142 1.199372,-0.98425 0.439767,-0.254 0.929514,-0.381 1.46923,-0.381 0.839564,0 1.43925,0.23284 1.79906,0.6985 0.3798,0.4445 0.54971,0.97366 0.50973,1.58749 -0.02,0.59267 -0.24989,1.14301 -0.68963,1.65101 l -6.230237,7.00601 6.590047,7.88472 c 0.51972,0.61383 0.77959,1.24883 0.77959,1.905 0,0.635 -0.20989,1.16416 -0.62967,1.58749 -0.39979,0.42333 -0.999478,0.635 -1.799062,0.635 -0.679646,0 -1.229352,-0.13758 -1.649129,-0.41275 -0.399787,-0.29633 -0.839564,-0.73025 -1.319311,-1.30175 l -7.316167,-8.66774 h -0.05997 v 7.42949 c 0,0.93134 -0.229879,1.66158 -0.689638,2.19075 -0.45976,0.508 -1.149398,0.762 -2.068917,0.762 z m 25.186794,0 c -0.87953,0 -1.55918,-0.254 -2.03892,-0.762 -0.47975,-0.52917 -0.71963,-1.25941 -0.71963,-2.19075 v -14.95423 h -4.70753 c -0.73961,0 -1.30932,-0.20108 -1.7091,-0.60324 -0.37981,-0.42333 -0.56971,-1.016 -0.56971,-1.778 0,-0.78317 0.1899,-1.37583 0.56971,-1.77801 0.39978,-0.40216 0.96949,-0.60324 1.7091,-0.60324 h 14.93217 c 0.73962,0 1.29932,0.20108 1.67913,0.60324 0.39979,0.40218 0.59969,0.99484 0.59969,1.77801 0,0.762 -0.1999,1.35467 -0.59969,1.778 -0.37981,0.40216 -0.93951,0.60324 -1.67913,0.60324 h -4.70753 v 14.95423 c 0,0.93134 -0.22987,1.66158 -0.68964,2.19075 -0.45976,0.508 -1.14939,0.762 -2.06892,0.762 z m 14.33248,0 c -0.87955,0 -1.55919,-0.254 -2.03894,-0.762 -0.47975,-0.52917 -0.71963,-1.27 -0.71963,-2.22249 V 145.7689 c 0,-0.97367 0.23988,-1.71449 0.71963,-2.22249 0.47975,-0.508 1.15939,-0.762 2.03894,-0.762 0.89952,0 1.57916,0.254 2.03892,0.762 0.47975,0.508 0.71963,1.24882 0.71963,2.22249 v 16.98624 c 0,0.95249 -0.22988,1.69332 -0.68964,2.22249 -0.45977,0.508 -1.1494,0.762 -2.06891,0.762 z m 9.14521,0 c -0.79958,0 -1.41926,-0.23284 -1.85902,-0.6985 -0.41979,-0.46566 -0.62968,-1.12183 -0.62968,-1.9685 v -17.62122 c 0,-0.86784 0.22988,-1.524 0.68964,-1.9685 0.45976,-0.46566 1.10942,-0.6985 1.94898,-0.6985 0.69964,0 1.24935,0.14817 1.64914,0.4445 0.41978,0.27517 0.79957,0.74083 1.1394,1.397 l 5.92067,11.25563 5.89314,-11.25563 c 0.35981,-0.65617 0.73962,-1.12183 1.1394,-1.397 0.41978,-0.29633 0.97949,-0.4445 1.67912,-0.4445 0.79959,0 1.40926,0.23284 1.82905,0.6985 0.43977,0.4445 0.65965,1.10066 0.65965,1.9685 v 17.62122 c 0,0.84667 -0.20989,1.50284 -0.62967,1.9685 -0.41978,0.46566 -1.03945,0.6985 -1.85903,0.6985 -0.79958,0 -1.41926,-0.23284 -1.85903,-0.6985 -0.41977,-0.46566 -0.62966,-1.12183 -0.62966,-1.9685 v -9.76242 l -4.1978,7.73043 c -0.27985,0.46566 -0.5797,0.81491 -0.89954,1.04774 -0.29983,0.23284 -0.70962,0.34925 -1.22935,0.34925 -0.49973,0 -0.90952,-0.11641 -1.22936,-0.34925 -0.31983,-0.23283 -0.60968,-0.58208 -0.86954,-1.04774 l -4.16781,-7.65508 v 9.68707 c 0,0.84667 -0.20989,1.50284 -0.62968,1.9685 -0.41978,0.46566 -1.03945,0.6985 -1.85902,0.6985 z m 26.83596,-0.28575 c -0.93951,0 -1.65913,-0.254 -2.15887,-0.762 -0.47975,-0.52916 -0.71962,-1.28058 -0.71962,-2.25425 v -16.35122 c 0,-0.97367 0.23987,-1.71451 0.71962,-2.2225 0.49974,-0.52917 1.21936,-0.79375 2.15887,-0.79375 h 10.16468 c 0.71962,0 1.25934,0.1905 1.61914,0.5715 0.35981,0.38099 0.53972,0.93132 0.53972,1.65099 0,0.74084 -0.17991,1.31233 -0.53972,1.71451 -0.3598,0.38099 -0.89952,0.5715 -1.61914,0.5715 h -7.76594 v 4.25449 h 7.10628 c 0.69964,0 1.22936,0.1905 1.58917,0.5715 0.3798,0.38099 0.5697,0.94191 0.5697,1.68275 0,0.74083 -0.1899,1.30175 -0.5697,1.68274 -0.35981,0.381 -0.88953,0.5715 -1.58917,0.5715 h -7.10628 v 4.60374 h 7.76594 c 0.71962,0 1.25934,0.20109 1.61914,0.60326 0.35981,0.38099 0.53972,0.93133 0.53972,1.65099 0,0.74084 -0.17991,1.30176 -0.53972,1.68275 -0.3598,0.381 -0.89952,0.5715 -1.61914,0.5715 z m 18.29043,0.28575 c -0.87954,0 -1.55919,-0.254 -2.03894,-0.762 -0.47974,-0.52917 -0.71962,-1.25941 -0.71962,-2.19075 v -16.76397 c 0,-0.9525 0.23988,-1.68275 0.71962,-2.19075 0.49974,-0.508 1.18938,-0.762 2.06892,-0.762 h 7.37614 c 2.39874,0 4.24777,0.62441 5.54709,1.87324 1.31931,1.22768 1.97897,2.94217 1.97897,5.1435 0,1.41816 -0.29985,2.65642 -0.89954,3.71475 -0.57969,1.03716 -1.42925,1.84149 -2.54866,2.41299 -1.09942,0.55033 -2.01021,0.19429 -1.12144,0.43968 0.35612,0.11079 0.68996,0.27114 1.0015,0.48107 0.65966,0.42333 1.20937,1.0795 1.64914,1.9685 l 1.49921,2.8575 c 0.31984,0.61383 0.46976,1.21708 0.44977,1.80974 -0.02,0.5715 -0.23991,1.04775 -0.65966,1.42876 -0.39979,0.35983 -0.98948,0.53974 -1.76907,0.53974 -0.77959,0 -1.41926,-0.16934 -1.91899,-0.508 -0.47975,-0.33866 -0.90953,-0.86782 -1.28933,-1.58749 l -2.72857,-5.30225 c -0.23987,-0.46567 -0.54971,-0.78317 -0.92951,-0.9525 -0.35981,-0.1905 -0.77959,-0.28575 -1.25934,-0.28575 h -1.64914 v 5.68324 c 0,0.93134 -0.22988,1.66158 -0.68963,2.19075 -0.45977,0.508 -1.14941,0.762 -2.06892,0.762 z m 2.75855,-12.76349 h 3.65809 c 1.05944,0 1.86901,-0.22224 2.42872,-0.66674 0.5597,-0.44451 0.83956,-1.13242 0.83956,-2.06375 0,-0.889 -0.27986,-1.55574 -0.83956,-2.00025 -0.55971,-0.46566 -1.36928,-0.6985 -2.42872,-0.6985 h -3.65809 z"
       id="text3"
       inkscape:label="BRICKTIMER"
       aria-label="BRICKTIMER"
       sodipodi:nodetypes="scssssscsscscscsscscscscccscscsccscsscsscsccscccccsccccscscscssscsccscsssscsscssscscccsccscscccscssccsccccccccsscsscscsccccscccccscsccccscsscscscscsscssscscsscsssscsscsscsscscccccscsssscscccssccsssscssssssscsccscscsccscssssscsscsscsccscccccsccccscscscssscscc" />
  </g>
</svg>
